# xmcd CD database file
#
# Track frame offsets:
#	150
#	18492
#	32990
#	46499
#	61489
#	79376
#	94881
#	112911
#	125133
#	141619
#	158938
#	174150
#	191520
#	208881
#	224974
#	242171
#	257298
#	272534
#
# Disc length: 3806 seconds
#
# Revision: 0
# Processed by: cddbd v1.5.1PL2 Copyright (c) Steve Scherf et al.
# Submitted via: CDex 1.51
#
DISCID=160edc12
DTITLE=Various Artist - radio compilation
DYEAR=2002
DGENRE=Pop Rock
TTITLE0=Joee  -  does that make u happy (radio edit)
TTITLE1=The Full Nine  -  not over
TTITLE2=Garrity  -  a day away (radio edit)
TTITLE3=Sheryl Crow -  soak up the sun (radio edit)
TTITLE4=Vanessa Carlton  -  a thousand miles
TTITLE5=RES  -  they say vision (radio edit)
TTITLE6=Something Corporate  -  if you C Jordan (radio edit)
TTITLE7=Smash Mouth  -  holiday in my head
TTITLE8=Sophie Ellis-Bextor  -  murder on the dancefloor
TTITLE9=DJ Encore  -  i see right through (radio edit)
TTITLE10=S Club 7  -  have you ever
TTITLE11=Roman Keating  -  the way you make me feel
TTITLE12=Citizen Cope  -  if there's love
TTITLE13=Louise Goffin  -  sometimes a circle
TTITLE14=Leona Naess  -  Mayor of your town (radio edit)
TTITLE15=The Apex Theory  -  shhh....(hope Diggy)
TTITLE16=Tommy Lee  -  hold me down
TTITLE17=Slipknot  -  my plague (new abuse mix )
EXTD=YEAR: 2002
EXTT0=
EXTT1=
EXTT2=
EXTT3=
EXTT4=
EXTT5=
EXTT6=
EXTT7=
EXTT8=
EXTT9=
EXTT10=
EXTT11=
EXTT12=
EXTT13=
EXTT14=
EXTT15=
EXTT16=
EXTT17=
PLAYORDER=
